<svg xmlns="http://www.w3.org/2000/svg" style="display: none;">

    <symbol id="desktop" viewBox="0 0 1024 1024">
        <path d="M 0 64 v 640 h 1024 v -640 h -1024 z M 960 640 h -896 v -512 h 896 v 512 z M 672 768 h -320 l -32 128 -64 64 h 512 l -64 -64 z" />
    </symbol>

    <symbol id="mobile" viewBox="0 0 1024 1024">
        <path d="M 736 0 h -448 c -52.8 0 -96 43.2 -96 96 v 832 c 0 52.8 43.2 96 96 96 h 448 c 52.8 0 96 -43.2 96 -96 v -832 c 0 -52.8 -43.2 -96 -96 -96 z M 384 48 h 256 v 32 h -256 v -32 z M 512 960 c -35.346 0 -64 -28.654 -64 -64 s 28.654 -64 64 -64 64 28.654 64 64 -28.654 64 -64 64 z M 768 768 h -512 v -640 h 512 v 640 z" />
    </symbol>

    <symbol id="load" viewBox="0 0 100 100">
        <path d="M 70 30 A 28.5 28.5 0 1 0 70 70 L 85 85 A 49.5 49.5 0 1 1 85 15 L 100 0 V 45 H 55 Z" />
    </symbol>

    <symbol id="on" viewBox="0 0 100 100">
        <path d="M 50 1 A 49 49 0 1 0 50.1 1 Z" />
    </symbol>

    <symbol id="busy" viewBox="0 0 100 100">
        <path d="M 50 1 A 49 49 0 1 0 50.1 1 Z" />
        <path fill="white" d="M 20 40 H 80 V 60 H 20 Z" />
    </symbol>

    <symbol id="idle" viewBox="0 0 100 100">
        <path d="M 50 1 A 49 49 0 1 0 50.1 1 Z" />
        <path fill="white" d="M 45 15 H 55 V 55 H 45 Z M 55 45 H 80 V 55 H 55 Z" />
    </symbol>

    <symbol id="off" viewBox="0 0 100 100">
        <path d="M 50 1 A 49 49 0 1 0 50.1 1 Z" />
        <path fill="white" d="M 20 30 L 30 20 L 50 40 L 70 20 L 80 30 L 60 50 L 80 70 L 70 80 L 50 60 L 30 80 L 20 70 L 40 50 Z" />
    </symbol>

    <symbol id="inv" viewBox="0 0 100 100">
        <path d="M 50 1 A 49 49 0 1 0 50.1 1 Z" />
        <path fill="white" d="M 20 30 L 30 20 L 50 40 L 70 20 L 80 30 L 60 50 L 80 70 L 70 80 L 50 60 L 30 80 L 20 70 L 40 50 Z" />
    </symbol>

    <symbol id="cross" viewBox="0 0 100 100">
        <path d="M 10 20 L 20 10 L 50 40 L 80 10 L 90 20 L 60 50 L 90 80 L 80 90 L 50 60 L 20 90 L 10 80 L 40 50 Z" />
    </symbol>

</svg>
